<svg xmlns="http://www.w3.org/2000/svg" viewBox="0 0 200 200" width="200" height="200">
  <rect width="200" height="200" rx="44" ry="44" fill="#1c1c1e"/>

  <!-- Top petal: white -->
  <path d="M100 18 C78 18 62 62 62 100 C78 88 100 80 100 80 C100 80 122 88 138 100 C138 62 122 18 100 18Z" fill="#f0f0f0"/>

  <!-- Bottom petal: magenta/pink -->
  <path d="M100 182 C122 182 138 138 138 100 C122 112 100 120 100 120 C100 120 78 112 62 100 C62 138 78 182 100 182Z" fill="#d946c8"/>

  <!-- Left petal: red -->
  <path d="M18 100 C18 78 62 62 100 62 C88 78 80 100 80 100 C80 100 88 122 100 138 C62 138 18 122 18 100Z" fill="#e63030"/>

  <!-- Right petal: cyan -->
  <path d="M182 100 C182 122 138 138 100 138 C112 122 120 100 120 100 C120 100 112 78 100 62 C138 62 182 78 182 100Z" fill="#00d4c8"/>

  <!-- Center dark overlay -->
  <circle cx="100" cy="100" r="22" fill="#1c1c1e" opacity="0.5"/>
</svg>
